<?xml version="1.0" encoding="UTF-8" standalone="no"?>
<!-- Created with Inkscape (http://www.inkscape.org/) -->

<svg
   xmlns:dc="http://purl.org/dc/elements/1.1/"
   xmlns:cc="http://creativecommons.org/ns#"
   xmlns:rdf="http://www.w3.org/1999/02/22-rdf-syntax-ns#"
   xmlns:svg="http://www.w3.org/2000/svg"
   xmlns="http://www.w3.org/2000/svg"
   xmlns:sodipodi="http://sodipodi.sourceforge.net/DTD/sodipodi-0.dtd"
   xmlns:inkscape="http://www.inkscape.org/namespaces/inkscape"
   width="256"
   height="256"
   viewBox="0 0 256 256"
   id="svg2"
   version="1.1"
   inkscape:version="0.91 r13725"
   sodipodi:docname="çarkk.svg"
   inkscape:export-filename="C:\Users\Bekir\Downloads\bitmap.png"
   inkscape:export-xdpi="90"
   inkscape:export-ydpi="90">
  <defs
     id="defs4" />
  <sodipodi:namedview
     id="base"
     pagecolor="#ffffff"
     bordercolor="#666666"
     borderopacity="1.0"
     inkscape:pageopacity="0.0"
     inkscape:pageshadow="2"
     inkscape:zoom="1.979899"
     inkscape:cx="200.7683"
     inkscape:cy="148.50012"
     inkscape:document-units="px"
     inkscape:current-layer="layer1"
     showgrid="false"
     units="px"
     inkscape:window-width="1440"
     inkscape:window-height="848"
     inkscape:window-x="-8"
     inkscape:window-y="-8"
     inkscape:window-maximized="1">
    <inkscape:grid
       type="xygrid"
       id="grid4226" />
  </sodipodi:namedview>
  <metadata
     id="metadata7">
    <rdf:RDF>
      <cc:Work
         rdf:about="">
        <dc:format>image/svg+xml</dc:format>
        <dc:type
           rdf:resource="http://purl.org/dc/dcmitype/StillImage" />
        <dc:title />
      </cc:Work>
    </rdf:RDF>
  </metadata>
  <g
     inkscape:label="Layer 1"
     inkscape:groupmode="layer"
     id="layer1"
     transform="translate(0,-796.36216)">
    <path
       style="fill:#ffffff;fill-opacity:1;fill-rule:evenodd;stroke:none;stroke-width:1px;stroke-linecap:butt;stroke-linejoin:miter;stroke-opacity:1"
       d="m 52.142857,965.57645 -8.75,-19.82143 0.714286,-45.89286 11.785714,-25.35714 27.321429,-25.53572 25.535714,-10.35714 41.42857,1.07143 25.53572,11.96428 30.89285,34.64286 6.96429,20.17857 -2.14286,41.78572 -14.28571,35.35714 -28.39286,18.21434 -25,9.2857 -35.53571,-2.8572 -25.892861,-8.92855 -30.178572,-33.75001 34.254147,-17.31059 6.63871,7.84631 17.499996,11.60714 25.89286,1.78572 16.78572,-9.64286 15.89285,-19.28571 1.78572,-19.10715 -5,-16.78571 -13.75,-15.89286 -20.71429,-8.75 -22.5,2.32143 -18.392856,12.85714 -9.107142,18.92857 0.178571,21.96429 4.821429,12.14286 z"
       id="path4325"
       inkscape:connector-curvature="0"
       sodipodi:nodetypes="ccccccccccccccccccccccccccccccccc" />
    <path
       style="fill:none;fill-opacity:1;stroke:#ffffff;stroke-width:3;stroke-linecap:round;stroke-linejoin:round;stroke-miterlimit:4;stroke-dasharray:none;stroke-opacity:1"
       id="path4207"
       sodipodi:type="arc"
       sodipodi:cx="127.99995"
       sodipodi:cy="924.36218"
       sodipodi:rx="86.792725"
       sodipodi:ry="86.792778"
       sodipodi:start="0"
       sodipodi:end="6.2784904"
       sodipodi:open="true"
       d="m 214.79267,924.36218 a 86.792725,86.792778 0 0 1 -86.69085,86.79272 86.792725,86.792778 0 0 1 -86.894359,-86.58898 86.792725,86.792778 0 0 1 86.486869,-86.99598 86.792725,86.792778 0 0 1 87.09738,86.38476" />
    <path
       style="fill:#ffffff;fill-opacity:1;fill-rule:evenodd;stroke:#ffffff;stroke-width:2.80273628;stroke-linecap:butt;stroke-linejoin:miter;stroke-miterlimit:4;stroke-dasharray:none;stroke-opacity:1"
       d="m 101.94198,842.2755 c 0,0 -1.84152,-28.43568 0,-30.09863 1.84152,-1.66295 50.44502,-1.57366 52.19726,0 1.75224,1.57366 0,30.09863 0,30.09863"
       id="path4209"
       inkscape:connector-curvature="0"
       sodipodi:nodetypes="czzc" />
    <path
       style="fill:#ffffff;fill-opacity:1;fill-rule:evenodd;stroke:#ffffff;stroke-width:2.80273652;stroke-linecap:butt;stroke-linejoin:miter;stroke-miterlimit:4;stroke-dasharray:none;stroke-opacity:1"
       d="m 103.73277,1005.6886 c 0,0 -2.02009,28.0785 0,30.0986 2.02009,2.0201 50.17718,2.0201 52.19727,0 2.02009,-2.0201 0,-30.0986 0,-30.0986"
       id="path4209-7"
       inkscape:connector-curvature="0"
       sodipodi:nodetypes="czzc" />
    <path
       style="fill:#ffffff;fill-opacity:1;fill-rule:evenodd;stroke:#ffffff;stroke-width:2.80273628;stroke-linecap:butt;stroke-linejoin:miter;stroke-miterlimit:4;stroke-dasharray:none;stroke-opacity:1"
       d="m 46.532982,950.15078 c 0,0 -28.524968,1.75224 -30.098632,0 -1.573664,-1.75224 -1.841521,-50.35574 0,-52.19726 1.841521,-1.84152 30.098632,0 30.098632,0"
       id="path4209-70"
       inkscape:connector-curvature="0"
       sodipodi:nodetypes="czzc" />
    <path
       style="fill:#ffffff;fill-opacity:1;fill-rule:evenodd;stroke:#ffffff;stroke-width:2.80273628;stroke-linecap:butt;stroke-linejoin:miter;stroke-miterlimit:4;stroke-dasharray:none;stroke-opacity:1"
       d="m 209.57875,898.7619 c 0,0 28.52497,-1.66295 30.09863,0 1.57366,1.66295 1.57366,50.35574 0,52.19726 -1.57366,1.84152 -30.09863,0 -30.09863,0"
       id="path4209-9"
       inkscape:connector-curvature="0"
       sodipodi:nodetypes="czzc" />
    <path
       style="fill:#ffffff;fill-opacity:1;fill-rule:evenodd;stroke:#ffffff;stroke-width:2.80273628;stroke-linecap:butt;stroke-linejoin:miter;stroke-miterlimit:4;stroke-dasharray:none;stroke-opacity:1"
       d="m 51.708723,884.9891 c 0,0 -20.929761,-19.23136 -21.045332,-21.51793 -0.115571,-2.28657 35.029997,-36.47069 37.316563,-36.49697 2.286566,-0.0263 21.045329,21.51794 21.045329,21.51794"
       id="path4209-70-7"
       inkscape:connector-curvature="0"
       sodipodi:nodetypes="czzc" />
    <path
       style="fill:#ffffff;fill-opacity:1;fill-rule:evenodd;stroke:#ffffff;stroke-width:2.80273628;stroke-linecap:butt;stroke-linejoin:miter;stroke-miterlimit:4;stroke-dasharray:none;stroke-opacity:1"
       d="m 87.423216,999.11726 c 0,0 -18.784934,21.10834 -21.51793,21.04534 -2.732996,-0.063 -36.649259,-34.85143 -36.49697,-37.31657 0.152289,-2.46514 21.51794,-21.04533 21.51794,-21.04533"
       id="path4209-70-7-8"
       inkscape:connector-curvature="0"
       sodipodi:nodetypes="czzc" />
    <path
       style="fill:#ffffff;fill-opacity:1;fill-rule:evenodd;stroke:#ffffff;stroke-width:2.80273628;stroke-linecap:butt;stroke-linejoin:miter;stroke-miterlimit:4;stroke-dasharray:none;stroke-opacity:1"
       d="m 203.69428,964.83134 c 0,0 21.01901,18.96348 21.04529,21.5179 0.0263,2.55442 -34.49432,36.47066 -37.31659,36.49696 -2.82227,0.026 -21.0453,-21.5179 -21.0453,-21.5179"
       id="path4209-70-7-9"
       inkscape:connector-curvature="0"
       sodipodi:nodetypes="czzc" />
    <path
       style="fill:#ffffff;fill-opacity:1;fill-rule:evenodd;stroke:#ffffff;stroke-width:2.80273628;stroke-linecap:butt;stroke-linejoin:miter;stroke-miterlimit:4;stroke-dasharray:none;stroke-opacity:1"
       d="m 166.55117,847.846 c 0,0 18.87419,-21.01901 21.5179,-21.0453 2.64371,-0.0263 36.56001,34.5836 36.49701,37.3166 -0.063,2.733 -21.51791,21.0453 -21.51791,21.0453"
       id="path4209-70-7-4"
       inkscape:connector-curvature="0"
       sodipodi:nodetypes="czzc" />
    <path
       style="fill:none;fill-opacity:1;stroke:#ffffff;stroke-width:3.36144257;stroke-linecap:round;stroke-linejoin:round;stroke-miterlimit:4;stroke-dasharray:none;stroke-opacity:1"
       id="path4323"
       sodipodi:type="arc"
       sodipodi:cx="125.71421"
       sodipodi:cy="924.50507"
       sodipodi:rx="44.819191"
       sodipodi:ry="44.819275"
       sodipodi:start="0"
       sodipodi:end="6.2784904"
       sodipodi:open="true"
       d="m 170.5334,924.50507 a 44.819191,44.819275 0 0 1 -44.76658,44.81924 44.819191,44.819275 0 0 1 -44.871677,-44.71403 44.819191,44.819275 0 0 1 44.661247,-44.92421 44.819191,44.819275 0 0 1 44.97652,44.60857" />
  </g>
</svg>
