<?xml version="1.0" encoding="UTF-8" standalone="no"?>
<!-- Created with Inkscape (http://www.inkscape.org/) -->

<svg
   xmlns:dc="http://purl.org/dc/elements/1.1/"
   xmlns:cc="http://creativecommons.org/ns#"
   xmlns:rdf="http://www.w3.org/1999/02/22-rdf-syntax-ns#"
   xmlns:svg="http://www.w3.org/2000/svg"
   xmlns="http://www.w3.org/2000/svg"
   xmlns:sodipodi="http://sodipodi.sourceforge.net/DTD/sodipodi-0.dtd"
   xmlns:inkscape="http://www.inkscape.org/namespaces/inkscape"
   width="256"
   height="256"
   id="svg2"
   version="1.1"
   inkscape:version="0.91 r13725"
   inkscape:export-filename="/home/trlinux/Mp/volume0.png"
   inkscape:export-xdpi="56.25"
   inkscape:export-ydpi="56.25"
   sodipodi:docname="volume.svg">
  <defs
     id="defs4" />
  <sodipodi:namedview
     id="base"
     pagecolor="#ffffff"
     bordercolor="#666666"
     borderopacity="1.0"
     inkscape:pageopacity="0.0"
     inkscape:pageshadow="2"
     inkscape:zoom="0.7"
     inkscape:cx="279.85714"
     inkscape:cy="43.276111"
     inkscape:document-units="px"
     inkscape:current-layer="audio-volume-medium"
     showgrid="false"
     inkscape:window-width="1366"
     inkscape:window-height="711"
     inkscape:window-x="0"
     inkscape:window-y="0"
     inkscape:window-maximized="1" />
  <metadata
     id="metadata7">
    <rdf:RDF>
      <cc:Work
         rdf:about="">
        <dc:format>image/svg+xml</dc:format>
        <dc:type
           rdf:resource="http://purl.org/dc/dcmitype/StillImage" />
        <dc:title></dc:title>
      </cc:Work>
    </rdf:RDF>
  </metadata>
  <g
     inkscape:label="Layer 1"
     inkscape:groupmode="layer"
     id="layer1"
     transform="translate(0,-796.36218)">
    <g
       id="audio-volume-high"
       transform="matrix(2.882557,0,0,2.882557,-0.14085993,988.83425)">
      <rect
         style="fill:#ff0000;fill-opacity:0;stroke:none"
         id="rect4168"
         width="84.377655"
         height="84.377655"
         x="-5.9471006"
         y="-62.377659" />
      <g
         id="audio-volume-high-8"
         transform="matrix(0.7360623,0,0,0.7360623,-2.3533019,4.4508189)">
        <path
           inkscape:connector-curvature="0"
           id="path4160"
           d="m 50.110966,-78.228994 c -2.172849,0.09428 -4.185071,1.193522 -5.527753,2.763877 l -14.458955,16.057892 -16.137841,0 c -4.6142033,5.04e-4 -7.9942837,4.08285 -7.9946829,8.497207 l 0,27.535981 c 3.992e-4,4.414367 3.4964996,8.325408 7.9946829,8.325892 l 16.137841,0 14.504639,16.1149968 c 0.07041,0.079996 0.144308,0.1546668 0.216996,0.2284042 0.0026,0.0026 0.0088,-0.0026 0.01141,0 2.450625,2.5637492 6.208284,2.9072923 8.919781,1.5418273 2.714326,-1.3668566 4.689257,-4.3104043 4.614096,-7.8005076 l 0,-64.7683637 c -3.92e-4,-4.414358 -3.380503,-8.496683 -7.994683,-8.497206 -0.08581,-0.0012 -0.176888,-0.0029 -0.262683,0 l -0.01141,0 -0.01141,0 z m 0.239843,5.847539 0.01141,0 0.03428,0 c 1.241559,1.43e-4 2.146996,0.977572 2.147146,2.649667 l 0,64.8597327 0,0.0345 c 0.02689,1.2489103 -0.645392,2.0730983 -1.404782,2.4555123 -0.759387,0.382427 -1.293263,0.44599 -2.055774,-0.354071 l -0.03428,-0.0345 -0.02287,-0.02281 c -0.0067,-0.0077 -0.0201,-0.02046 -0.02287,-0.02281 l 0,-0.01178 -16.274892,-18.06798 -18.741822,0 c -1.357522,7e-5 -2.146932,-0.806002 -2.147084,-2.478135 l 0,-27.535982 c 1.52e-4,-1.672139 0.905583,-2.64953 2.147143,-2.649667 l 18.741822,0 16.274893,-18.079404 0.02287,-0.02287 c 0.467671,-0.548425 0.777656,-0.694048 1.324812,-0.719501 z"
           style="color:#000000;font-style:normal;font-variant:normal;font-weight:normal;font-stretch:normal;font-size:medium;line-height:normal;font-family:Sans;-inkscape-font-specification:Sans;text-indent:0;text-align:start;text-decoration:none;text-decoration-line:none;letter-spacing:normal;word-spacing:normal;text-transform:none;direction:ltr;block-progression:tb;writing-mode:lr-tb;baseline-shift:baseline;text-anchor:start;display:inline;overflow:visible;visibility:visible;fill:#ffffff;fill-opacity:1;fill-rule:nonzero;stroke:#ffffff;stroke-width:1.94895101;stroke-miterlimit:4;stroke-dasharray:none;stroke-opacity:1;marker:none;enable-background:accumulate" />
        <rect
           style="fill:#ff0000;fill-opacity:0;stroke:none"
           id="rect4168-7"
           width="84.377655"
           height="84.377655"
           x="15.061027"
           y="-77.063622" />
      </g>
      <g
         id="audio-volume-medium"
         transform="matrix(0.34691422,0,0,0.34691422,53.238695,-6.7659003)" />
    </g>
  </g>
</svg>
